<svg xmlns="http://www.w3.org/2000/svg" viewBox="0 0 512 512">
  <circle cx="256" cy="256" r="256" fill="#1a2744"/>
  <g transform="translate(145, 60) scale(1.3)" fill="#c9a84c">
    <!-- Wheat sheaf / leaf motif -->
    <path d="M140 20 C120 40, 100 80, 95 120 C90 100, 85 60, 100 30 C108 18, 125 12, 140 20Z"/>
    <path d="M155 45 C170 35, 200 30, 220 15 C205 40, 185 55, 160 65 C155 58, 153 50, 155 45Z"/>
    <path d="M145 80 C165 65, 200 55, 230 45 C210 70, 185 85, 155 95 C148 90, 145 85, 145 80Z"/>
    <path d="M130 120 C155 105, 195 90, 225 80 C205 110, 175 125, 140 135 C133 130, 130 125, 130 120Z"/>
    <path d="M110 160 C140 145, 180 130, 210 120 C190 150, 160 170, 125 175 C118 170, 112 165, 110 160Z"/>
    <path d="M85 200 C115 185, 155 170, 185 160 C170 190, 140 210, 105 215 C95 210, 88 205, 85 200Z"/>
    <path d="M60 240 C90 225, 125 215, 155 205 C140 235, 115 250, 80 255 C70 250, 63 245, 60 240Z"/>
    <!-- Stem -->
    <path d="M95 120 C80 160, 55 220, 30 280 C25 290, 20 295, 15 300 C20 290, 40 240, 65 180 C75 155, 85 135, 95 120Z"/>
  </g>
</svg>
