<svg xmlns="http://www.w3.org/2000/svg" viewBox="0 0 200 240" fill="#c9a84c">
  <!-- Wheat sheaf / leaf motif -->
  <path d="M100 5 C85 25, 70 65, 65 105 C60 85, 55 45, 70 15 C78 3, 92 -2, 100 5Z"/>
  <path d="M112 30 C130 18, 160 12, 185 0 C168 28, 148 42, 118 52 C113 45, 111 37, 112 30Z"/>
  <path d="M105 68 C128 50, 165 38, 195 28 C175 58, 148 73, 115 83 C108 78, 105 72, 105 68Z"/>
  <path d="M90 108 C118 90, 158 76, 190 65 C170 98, 138 115, 100 123 C93 118, 90 112, 90 108Z"/>
  <path d="M72 148 C105 130, 145 116, 178 105 C158 138, 125 158, 88 163 C78 158, 74 152, 72 148Z"/>
  <path d="M50 188 C83 170, 120 158, 150 148 C135 178, 105 198, 68 203 C58 198, 52 192, 50 188Z"/>
  <path d="M28 225 C55 212, 85 200, 115 192 C100 218, 75 235, 42 238 C34 234, 30 229, 28 225Z"/>
  <!-- Stem -->
  <path d="M65 105 C50 145, 30 200, 10 240 C15 230, 35 180, 50 140 C55 125, 60 115, 65 105Z"/>
</svg>
